<?xml version="1.0" encoding="UTF-8" standalone="no"?>
<!-- Created with Inkscape (http://www.inkscape.org/) -->

<svg
   width="271.79761mm"
   height="244.31441mm"
   viewBox="0 0 271.79761 244.31441"
   version="1.1"
   id="svg1"
   xml:space="preserve"
   inkscape:version="1.4.2 (f4327f4, 2025-05-13)"
   sodipodi:docname="kaos_icon.svg"
   xmlns:inkscape="http://www.inkscape.org/namespaces/inkscape"
   xmlns:sodipodi="http://sodipodi.sourceforge.net/DTD/sodipodi-0.dtd"
   xmlns="http://www.w3.org/2000/svg"
   xmlns:svg="http://www.w3.org/2000/svg"><sodipodi:namedview
     id="namedview1"
     pagecolor="#ffffff"
     bordercolor="#000000"
     borderopacity="0.25"
     inkscape:showpageshadow="2"
     inkscape:pageopacity="0.0"
     inkscape:pagecheckerboard="0"
     inkscape:deskcolor="#d1d1d1"
     inkscape:document-units="mm"
     inkscape:zoom="0.49173254"
     inkscape:cx="567.38161"
     inkscape:cy="756.50881"
     inkscape:window-width="2056"
     inkscape:window-height="1220"
     inkscape:window-x="-6"
     inkscape:window-y="-6"
     inkscape:window-maximized="1"
     inkscape:current-layer="layer1" /><defs
     id="defs1" /><g
     inkscape:label="Layer 1"
     inkscape:groupmode="layer"
     id="layer1"
     transform="translate(22.843313,-35.481748)"><path
       id="path2"
       style="display:inline;fill:#000000;stroke:#000000;stroke-width:0.264583;stroke-opacity:1"
       d="m 109.08,35.614039 c -12.331107,0.11777 -24.817857,1.46678 -36.77411,4.25399 -8.21247,3.54348 -17.11157,5.46784 -24.79197,10.30219 -11.09284,6.98489 -20.6244,16.261412 -31.21068,24.014072 -4.60853,4.86519 -9.4731701,9.56759 -11.1594101,16.29015 -5.23103199,14.648649 -4.95458699,30.582409 -6.367063,45.930809 -1.549144,5.74704 1.35132101,10.79146 3.453945,15.96187 -4.24558,5.99205 -12.7896489,3.98977 -17.4988089,9.25553 -3.227927,2.78495 -5.878535,7.00349 -7.439124,10.75581 1.024861,7.18886 0.332274,14.77951 1.89922,21.76563 4.202176,5.58707 7.011665,12.41736 13.6292679,15.61344 12.074373,6.92592 24.6278531,13.74018 37.7620531,18.12255 5.37418,-2.32087 7.29887,2.40332 9.62929,6.29884 5.62541,7.76414 9.30929,17.24264 16.43336,23.71011 10.35134,7.6747 23.661203,9.00766 34.565673,15.6957 5.2021,2.81408 10.050227,7.09984 16.411327,5.85953 7.31189,-0.70229 14.98025,0.0589 22.06994,-1.55557 9.08339,-5.33956 18.4584,-10.19109 28.54694,-13.41252 7.18831,-1.96892 12.92459,-7.13151 18.19482,-12.14318 4.37236,-4.86822 8.80496,-9.70082 10.2991,-16.27074 2.15332,-2.96232 1.94654,-10.56423 5.58827,-10.60056 4.34378,1.67817 8.59815,2.66619 12.25407,-0.96559 7.97129,-5.40828 17.76094,-7.06232 25.46342,-12.96786 6.94556,-4.68972 14.31638,-9.9427 17.50923,-17.92965 1.21775,-6.78291 1.96038,-13.57854 0.34773,-20.39074 -2.58288,-6.89706 -6.58986,-14.43202 -14.15465,-16.90936 -4.27988,-1.08797 -9.95519,-2.66751 -7.36473,-8.28467 1.30902,-10.20996 3.09429,-20.63856 0.0173,-30.71107 -1.27941,-8.99769 -2.20037,-18.253929 -7.28095,-26.065789 -3.2326,-5.99154 -7.23098,-11.61803 -10.47651,-17.5697 -8.87018,-9.03527 -17.28288,-19.367762 -29.45323,-23.980182 -10.20377,-5.36635 -21.35811,-8.8521 -32.43257,-11.87771 -12.29244,-3.1032 -25.1002,-1.85611 -37.67117,-2.19533 z m 5.21209,23.4549 c 6.24021,3.172172 6.86199,10.842022 9.38186,16.679082 -5.47866,3.93029 -12.94783,1.09435 -19.28462,1.56373 -0.57403,-7.65125 3.78394,-14.08073 9.90276,-18.242812 z M 59.62895,71.131531 c -0.60534,6.39629 -2.83555,10.04206 -5.51039,15.1501 -0.95289,4.0519 -1.00729,8.63576 -3.74328,12.21856 -4.091,6.771009 -1.47995,15.002149 -2.213,22.495579 0.35399,5.11487 -1.57468,11.02644 3.18486,14.60368 7.26511,8.28335 12.65089,19.15049 23.48893,23.26618 10.729473,6.04631 22.318093,12.53749 35.09039,11.2973 -1.32113,4.44569 -0.56266,9.29178 -3.03091,13.22179 -1.23511,5.55059 -3.81335,10.82381 -5.26356,16.18699 -2.859457,6.6335 -8.822317,10.60678 -15.221597,13.3483 -3.05893,3.0469 -7.45652,2.99149 -11.246193,3.23263 -4.30313,2.72997 -10.66535,4.39395 -10.7757,10.48595 -1.2224,4.76413 -0.52756,9.88103 -0.0686,14.67039 -2.92722,4.02253 -7.03215,-1.6232 -8.9875,-4.00798 -2.78758,-3.62205 -6.10563,-6.80439 -8.7339,-10.58596 2.41937,-3.33056 0.0401,-6.68579 -1.04232,-10.42417 2.8675,-0.60808 10.57021,-4.35731 7.09155,-7.32608 -3.07054,-4.20464 -8.82414,-5.4776 -10.66317,-10.71569 -2.86877,-3.93818 -6.65353,-7.37529 -6.96201,-12.46583 -2.94676,-7.35948 -2.59211,-15.42709 -1.17159,-23.45798 1.57918,-4.7539 1.73795,-7.63281 -4.24113,-6.98092 -3.67948,-2.64571 -7.90833,0.17035 -9.40537,-5.19413 0.98001,-5.28533 4.3858,-3.01692 7.50939,-4.46436 4.60073,-1.70993 8.16764,-5.99474 7.41816,-11.48716 0.64695,-4.66122 1.1891,-9.36411 0.5209,-14.07253 -5.62668,-0.44502 -11.33174,-0.46787 -16.93953,0.26045 1.89126,-8.59915 -0.0186,-18.10584 5.55398,-25.615909 5.21966,-7.51517 12.35786,-14.26016 20.76741,-18.16643 4.1816,-3.59398 10.06198,-6.29678 11.72744,-5.99398 z m 108.0883,-0.59559 c 5.7619,2.5448 12.04237,3.94988 17.07732,7.7569 7.43138,3.90841 13.77922,10.10898 18.62356,16.84754 4.27301,5.777719 4.43411,12.846709 4.86819,19.680369 1.98,5.77649 0.005,7.0402 -5.54635,5.75193 -3.33394,0.90692 -10.58108,-2.21572 -10.74407,2.44363 -0.15556,5.76064 0.32981,11.99325 1.79987,17.3356 3.66356,4.414 9.30569,6.31214 14.83681,6.54216 4.48349,2.39815 0.71914,8.18455 -3.44016,7.53005 -4.35933,0.38538 -8.29318,1.9087 -12.6727,2.62197 1.63357,3.1892 1.48851,7.86058 3.45205,11.49513 1.36842,7.3268 -2.06786,13.90248 -3.83816,20.77727 -1.15456,5.01394 -6.38424,8.21444 -8.25869,13.08537 -3.65271,2.68477 -6.95753,4.76104 -6.51536,9.90327 3.04653,2.19255 6.57166,4.20867 3.44673,8.94498 -2.07839,3.40946 2.45869,6.62403 -2.14345,9.29783 -2.99181,4.15634 -6.62089,7.77166 -9.90327,11.72745 -4.21563,3.52287 -6.40713,-1.48475 -4.69119,-5.11126 0.11382,-4.99431 0.22247,-10.61883 -2.4326,-14.84038 -4.16374,-2.50702 -8.26773,-6.74412 -13.46462,-5.5884 -5.50891,-1.35885 -9.87827,-5.37013 -15.11484,-7.55768 -4.93156,-4.11662 -7.57319,-9.91665 -9.11525,-15.92764 -1.89306,-4.30663 -2.76199,-9.09448 -4.69734,-13.20957 0.59771,-4.04676 -4.08304,-11.16423 3.08439,-9.17208 13.63731,-0.12504 25.0984,-8.7279 36.82703,-14.54403 8.21915,-6.67777 13.61691,-16.09825 20.55,-24.02622 -0.19615,-9.58532 0.38968,-19.33117 -0.28805,-28.81763 -2.09331,-5.164229 -5.70758,-9.864569 -5.185,-15.746579 -2.81859,-4.87828 -4.32192,-9.04609 -6.77581,-15.63625 0.087,-0.52124 0.17397,-1.04249 0.26096,-1.56373 z m -19.02468,8.59999 v 16.93953 c -3.32331,5.335659 -6.41195,-1.78312 -9.86364,-3.36002 -3.72008,-2.22718 -8.55646,-4.35495 -2.30199,-7.21562 3.67215,-2.95766 7.77245,-4.74796 12.16563,-6.36389 z m -70.103727,0.26045 c 6.4423,0.50906 11.70409,4.41299 16.93954,7.81813 0.268,5.06558 -7.15102,4.40364 -9.47113,8.21156 -4.25073,4.25288 -8.06803,-1.2294 -7.8986,-5.67136 -0.12838,-3.25899 -2.966963,-8.17779 0.43019,-10.35833 z m 17.98185,27.885119 c 2.58752,4.49289 -3.13744,7.06526 -3.12694,11.467 -3.40043,1.99803 -6.15241,7.50415 -10.60631,4.75069 -4.84622,-1.79681 -4.30394,-8.82209 -0.0433,-11.19569 3.19323,-4.513 8.99843,-3.58332 13.77659,-5.022 z m 36.224657,0 c 5.11385,0.93778 9.73104,3.25683 14.59446,4.95164 1.78734,4.1976 1.68511,12.60944 -4.69119,11.72744 -5.99813,-1.05209 -9.03846,-7.58576 -11.96023,-12.36898 -2.59982,-5.19102 -2.96078,-3.25391 2.05696,-4.3101 z m -21.89117,8.86096 c 4.4586,-0.49985 12.00901,0.78098 10.58771,6.88209 -0.58204,4.50962 1.05301,9.88766 -3.29048,12.92393 0.77383,4.42345 -6.35164,7.84661 -7.46949,3.13108 -2.16733,-3.81242 -3.54903,-7.6386 -3.07987,-12.0969 0.0716,-3.62438 -1.96562,-10.09458 3.25213,-10.8402 z m -57.79027,44.1172 c -5.80211,-0.88492 -11.61141,2.14916 -11.39661,8.4478 -0.38033,4.13371 -0.2971,8.76874 0.0885,12.73963 2.78806,3.89038 2.47681,9.74982 7.13838,12.43119 3.16543,3.22236 5.8171,7.53471 10.68514,8.07909 3.46466,5.24411 10.64301,6.25632 15.74434,3.52395 5.067393,-1.38649 8.929853,-4.61103 12.864623,-7.53682 4.45867,-1.35767 6.63678,-9.06923 4.85998,-13.5259 -2.22754,-3.58861 -6.65895,-5.7571 -9.38169,-9.37094 C 75.27638,167.79311 65.55325,162.85257 54.38453,160.71584 Z m 121.63961,0.70745 c -10.0162,2.21112 -19.37014,6.762 -27.19123,13.34983 -4.81845,3.16692 -7.90515,8.37747 -12.68179,11.6688 1.43568,6.36861 5.31767,12.52358 11.20603,15.63625 4.07261,4.53489 10.52673,4.64657 15.97518,3.6894 5.73224,-1.60178 10.55969,-5.4937 15.23927,-8.94122 3.64644,-3.25724 6.83206,-7.13216 7.35581,-12.20861 3.44555,-3.54854 0.7151,-8.87113 1.82417,-13.29118 -0.12885,-5.65881 -3.5995,-10.86047 -9.85642,-9.82536 -0.62367,-0.026 -1.24735,-0.0519 -1.87102,-0.0779 z"
       sodipodi:nodetypes="scccccccccccccccccccccccccccccccssccccccccccccccccccccccccccccccccscccccccccccccccccccccccccccccccccccccccccsccccsccccccccccccccccccccccsccccccccss" /></g></svg>
